HIERARCHY
ROOT Hips
{
	OFFSET 0.000000 0.000000 0.000000 
	CHANNELS 6 Xposition Yposition Zposition Yrotation Zrotation Xrotation 
	JOINT Lumbar
	{
		OFFSET 0.000000 0.000000 0.000000 
		CHANNELS 3 Zrotation Xrotation Yrotation
		JOINT Neck
		{
			OFFSET 0.000000 0.445665 0.000000 
			CHANNELS 3 Zrotation Xrotation Yrotation
			End Site
			{
				OFFSET 0.000000 0.227535 0.000000 
			}
		}
		JOINT RightShoulder
		{
			OFFSET 0.019635 0.377685 0.194865 
			CHANNELS 3 Zrotation Xrotation Yrotation
			JOINT RightElbow
			{
				OFFSET 0.000000 -0.243375 0.000000 
				CHANNELS 2 Zrotation Yrotation
				JOINT RightWrist
				{
					OFFSET 0.000000 -0.264825 0.000000 
					CHANNELS 2 Zrotation Xrotation
					End Site
					{
						OFFSET 0.006600 -0.176220 0.000990 
					}
				}
			}
		}
		JOINT LeftShoulder
		{
			OFFSET 0.019635 0.377685 -0.194865 
			CHANNELS 3 Zrotation Xrotation Yrotation
			JOINT LeftElbow
			{
				OFFSET 0.000000 -0.243375 0.000000 
				CHANNELS 2 Zrotation Yrotation
				JOINT LeftWrist
				{
					OFFSET 0.000000 -0.264825 0.000000 
					CHANNELS 2 Zrotation Xrotation
					End Site
					{
						OFFSET 0.006600 -0.176220 -0.000990 
					}
				}
			}
		}
	}
	JOINT RightHip
	{
		OFFSET 0.052140 -0.069960 0.075570 
		CHANNELS 3 Zrotation Xrotation Yrotation
		JOINT RightKnee
		{
			OFFSET 0.000000 -0.402270 0.000000 
			CHANNELS 1 Zrotation
			JOINT RightAnkle
			{
				OFFSET 0.000000 -0.404085 0.000000 
				CHANNELS 3 Zrotation Xrotation Yrotation
				End Site
				{
					OFFSET 0.204105 -0.089430 0.008415 
				}
			}
		}
	}
	JOINT LeftHip
	{
		OFFSET 0.052140 -0.069960 -0.075570 
		CHANNELS 3 Zrotation Xrotation Yrotation
		JOINT LeftKnee
		{
			OFFSET 0.000000 -0.402270 0.000000 
			CHANNELS 1 Zrotation
			JOINT LeftAnkle
			{
				OFFSET 0.000000 -0.404085 0.000000 
				CHANNELS 3 Zrotation Xrotation Yrotation
				End Site
				{
					OFFSET 0.204105 -0.089430 -0.008415 
				}
			}
		}
	}
}
MOTION
Frames: 22
Frame Time: 0.02
0.00055 -0.00042 -0.00088 -175.06001 -31.04059 1.99558 46.36488 -0.53215 -7.8248 -10.83705 1.97466 -0.09601 -19.58574 1.59604 -32.257 28.14977 173.10416 27.29846 13.42388 -25.91361 6.2063 3.91505 31.28623 -106.93214 16.73704 -1.41333 28.59642 -3.08985 -0.03498 -20.40151 -7.51183 -5.4933 -3.60798 33.31732 4.64944 -1.46958 -24.35825 -6.77182 4.0209 2.77264
0.00159 -0.00037 -0.00037 -175.12169 -31.19817 1.97486 46.23889 -0.47283 -7.83822 -10.40659 2.10872 -0.09695 -19.60071 0.82685 -29.76354 28.01796 165.3333 25.32173 12.19119 -25.73481 6.37242 3.6297 31.49878 -106.99517 16.66578 -1.4082 28.83809 -3.18265 -0.40128 -20.40386 -7.47161 -5.45759 -3.58478 33.5429 4.70754 -1.10582 -24.3731 -6.75774 3.98611 2.75006
0.00262 -0.00031 0.00015 -175.18317 -31.35526 1.95419 46.11325 -0.4137 -7.85163 -9.97752 2.24244 -0.09789 -19.61588 0.05988 -27.27769 27.88691 157.58635 23.35109 10.96228 -25.55649 6.53793 3.34525 31.71125 -107.05773 16.59456 -1.4031 29.07904 -3.2753 -0.76694 -20.40621 -7.43146 -5.42195 -3.56163 33.76782 4.76539 -0.74332 -24.38792 -6.74371 3.95143 2.72755
0.00366 -0.00025 0.00066 -175.24465 -31.51236 1.93353 45.98764 -0.35456 -7.86501 -9.54839 2.3761 -0.09883 -19.63084 -0.70697 -24.7919 27.75557 149.83942 21.38045 9.73338 -25.37824 6.70353 3.06079 31.92325 -107.12049 16.52348 -1.39798 29.31998 -3.36784 -1.13223 -20.40856 -7.39135 -5.38634 -3.53849 33.99272 4.82329 -0.38073 -24.40273 -6.72968 3.91674 2.70504
0.00469 -0.00019 0.00117 -175.30637 -31.66994 1.91282 45.86168 -0.29522 -7.87837 -9.11789 2.51006 -0.09977 -19.64551 -1.47599 -22.29852 27.62331 142.06862 19.4037 8.50069 -25.19953 6.86976 2.77541 32.13508 -107.18392 16.45245 -1.39286 29.56161 -3.46047 -1.49787 -20.41091 -7.35119 -5.35068 -3.51533 34.21824 4.88149 -0.01674 -24.41757 -6.71559 3.88194 2.68245
0.00573 -0.00013 0.00169 -175.36732 -31.82597 1.89225 45.73675 -0.23651 -7.89189 -8.69187 2.64328 -0.10071 -19.66172 -2.2386 -19.82861 27.49478 134.37225 17.44604 7.2798 -25.02204 7.03375 2.49292 32.34882 -107.24468 16.38085 -1.38779 29.8011 -3.55315 -1.86348 -20.41325 -7.3111 -5.31505 -3.49219 34.44187 4.93861 0.34265 -24.43234 -6.70167 3.84751 2.66014
0.00677 -7e-05 0.0022 -175.42973 -31.98498 1.87142 45.60988 -0.17662 -7.90508 -8.25724 2.77785 -0.10165 -19.67484 -3.01324 -17.31438 27.35898 126.53502 15.45224 6.03658 -24.8423 7.20206 2.20498 32.5586 -107.31055 16.31039 -1.3826 30.04467 -3.64568 -2.229 -20.41561 -7.27088 -5.2794 -3.46902 34.6691 4.99779 0.71068 -24.44723 -6.68745 3.81239 2.63728
0.0078 -1e-05 0.00272 -175.49084 -32.1412 1.85082 45.48481 -0.11782 -7.91855 -7.83064 2.91115 -0.10259 -19.69076 -3.77683 -14.8407 27.22973 118.82688 13.49157 4.81383 -24.66462 7.3664 1.92197 32.77185 -107.37205 16.23904 -1.37755 30.28444 -3.73825 -2.59415 -20.41795 -7.23082 -5.2438 -3.44591 34.89295 5.05516 1.07114 -24.46202 -6.67348 3.77787 2.61491
0.00882 5e-05 0.00323 -175.5502 -32.29423 1.83056 45.36184 -0.06032 -7.9325 -7.41337 3.04307 -0.10354 -19.71035 -4.52709 -12.41679 27.10908 111.27648 11.57136 3.61608 -24.48946 7.52592 1.64523 32.99025 -107.4268 16.1659 -1.37255 30.5198 -3.83129 -2.96091 -20.42027 -7.19078 -5.20812 -3.42274 35.11302 5.10997 1.42086 -24.47668 -6.65989 3.74424 2.59321
0.00989 0.00011 0.00374 -175.61916 -32.46627 1.8085 45.22647 0.00478 -7.94411 -6.94093 3.18346 -0.10445 -19.70956 -5.35458 -9.70709 26.94073 102.81811 9.41818 2.27441 -24.29979 7.71328 1.33314 33.18173 -107.51617 16.10096 -1.3669 30.78127 -3.92292 -3.3246 -20.42273 -7.1501 -5.17247 -3.39952 35.35588 5.17846 1.82791 -24.49206 -6.64433 3.70594 2.5679
0.01086 0.00017 0.00426 -175.66813 -32.59776 1.79015 45.11751 0.05377 -7.96036 -6.58585 3.30561 -0.10544 -19.75128 -6.01873 -7.60016 26.87185 96.27622 7.75679 1.23652 -24.14075 7.84181 1.09522 33.42821 -107.53523 16.0201 -1.36288 30.98713 -4.01669 -3.69074 -20.42489 -7.1111 -5.13705 -3.37663 35.54998 5.21878 2.11688 -24.50592 -6.6328 3.67719 2.55002
0.01156 0.00019 0.00482 -175.65951 -32.62063 1.78265 45.0797 0.05861 -7.99204 -6.54792 3.38042 -0.10668 -19.91492 -6.23376 -7.16473 27.08866 95.03719 7.4559 1.03912 -24.06671 7.80751 1.06829 33.84237 -107.34433 15.88597 -1.36244 31.04329 -4.12326 -4.09798 -20.42627 -7.07391 -5.09967 -3.35274 35.61457 5.17503 2.05425 -24.51558 -6.63332 3.67745 2.55436
0.01216 0.00021 0.00539 -175.63132 -32.60231 1.77871 45.06867 0.04726 -8.02791 -6.62868 3.43642 -0.108 -20.12033 -6.28487 -7.33151 27.40314 95.71492 7.64694 1.14556 -24.02344 7.71398 1.11588 34.30877 -107.09115 15.73924 -1.36464 31.04309 -4.2308 -4.50191 -20.42734 -7.03889 -5.06296 -3.3295 35.62945 5.10411 1.87756 -24.52373 -6.6377 3.68685 2.56586
0.01279 0.00023 0.00595 -175.61389 -32.60109 1.77277 45.04625 0.04326 -8.06009 -6.65835 3.49921 -0.10928 -20.30312 -6.4117 -7.21104 27.6644 95.48615 7.60552 1.10837 -23.96522 7.64902 1.12266 34.74019 -106.87101 15.60248 -1.36517 31.06679 -4.33324 -4.88417 -20.42853 -7.00477 -5.02769 -3.30727 35.66423 5.05017 1.77191 -24.53258 -6.63962 3.69011 2.57284
0.01347 0.00025 0.00652 -175.58858 -32.60656 1.76862 45.02058 0.03923 -8.09977 -6.6764 3.5693 -0.11059 -20.50114 -6.53335 -7.14824 27.96252 95.40856 7.60211 1.09489 -23.91037 7.57869 1.15302 35.2187 -106.60952 15.44119 -1.36427 31.09759 -4.45494 -5.36186 -20.42982 -6.96284 -4.98522 -3.27969 35.71008 4.97714 1.58752 -24.54134 -6.64442 3.70146 2.58505
0.01402 0.00027 0.00708 -175.57499 -32.5884 1.76137 45.00803 0.03144 -8.12489 -6.74659 3.61987 -0.11185 -20.67759 -6.62653 -7.10912 28.20782 95.47319 7.63686 1.10445 -23.85674 7.50334 1.15933 35.61209 -106.446 15.33629 -1.37126 31.10026 -4.53725 -5.64302 -20.4308 -6.93748 -4.9577 -3.26322 35.72132 4.9368 1.53688 -24.54994 -6.64427 3.69852 2.58826
0.01427 0.0003 0.00759 -175.59933 -32.5144 1.74638 45.02532 0.01711 -8.10804 -6.93353 3.62016 -0.11295 -20.78201 -6.68533 -6.97705 28.27608 95.43109 7.64867 1.09885 -23.79131 7.44899 1.01296 35.75239 -106.32386 15.31437 -1.36009 31.03879 -4.50635 -5.35633 -20.43121 -6.95919 -4.97295 -3.27882 35.64732 4.99897 1.91208 -24.55836 -6.62838 3.65054 2.56297
0.01439 0.00032 0.00808 -175.63602 -32.41806 1.7278 45.05493 -0.00045 -8.07648 -7.16879 3.60171 -0.114 -20.86381 -6.72045 -6.84993 28.28922 95.47112 7.68328 1.10671 -23.72773 7.38904 0.84944 35.80621 -106.33625 15.36023 -1.36219 30.95089 -4.43661 -4.87695 -20.43128 -6.99716 -5.00289 -3.3053 35.54044 5.09401 2.42085 -24.56668 -6.60755 3.58846 2.52872
0.01457 0.00035 0.00859 -175.66656 -32.33251 1.70974 45.07866 -0.01641 -8.05216 -7.38032 3.59243 -0.11508 -20.95723 -6.76373 -6.72745 28.33221 95.49273 7.71244 1.11118 -23.66799 7.31675 0.74222 35.903 -106.46238 15.42935 -1.38648 30.87544 -4.38734 -4.5027 -20.43138 -7.02648 -5.025 -3.32581 35.44998 5.17032 2.84939 -24.57508 -6.58974 3.53506 2.49985
0.01474 0.00036 0.00906 -175.69866 -32.24325 1.69658 45.10416 -0.03332 -8.02577 -7.60221 3.57952 -0.11616 -21.04588 -6.81215 -6.59668 28.35794 95.50103 7.73786 1.11466 -23.58849 7.30027 0.4453 35.98602 -105.89672 15.28447 -1.29969 30.79671 -4.32601 -4.05373 -20.43199 -7.06122 -5.05205 -3.35068 35.35205 5.26151 3.35513 -24.58325 -6.56888 3.47248 2.46579
0.01489 0.00041 0.00961 -175.73074 -32.15643 1.67222 45.12899 -0.04899 -7.99997 -7.81402 3.57026 -0.11722 -21.13924 -6.84651 -6.47681 28.40576 95.53217 7.77034 1.11958 -23.55155 7.1732 0.52281 36.07662 -106.74368 15.58315 -1.43737 30.71862 -4.28079 -3.71524 -20.43148 -7.08847 -5.07225 -3.36904 35.26187 5.33006 3.73485 -24.59195 -6.55306 3.42543 2.44023
0.01502 0.00056 0.01033 -175.75935 -32.08604 1.61858 45.14514 -0.05903 -7.98084 -7.97278 3.57319 -0.11824 -21.24477 -6.84766 -6.38034 28.52248 95.59254 7.81236 1.12238 -23.61952 6.6882 1.77556 36.20693 -111.9942 17.25215 -2.27932 30.65377 -4.28758 -3.72357 -20.42766 -7.09119 -5.07045 -3.36687 35.20642 5.32628 3.72089 -24.6016 -6.55305 3.42571 2.44108
